<svg width="36" height="36" xmlns="http://www.w3.org/2000/svg">
    <g fill="#000" fill-rule="nonzero">
        <path d="M34.964 26.907 29.76 21.7a3.708 3.708 0 0 0-2.634-1.078c-1.04 0-2.023.41-2.766 1.153l-2.025 2.025c-1.574-.875-3.666-2.078-5.838-4.25-2.169-2.17-3.372-4.256-4.252-5.838l2.028-2.026c1.507-1.51 1.538-3.933.069-5.401L9.14 1.084A3.691 3.691 0 0 0 6.505 0c-1.018 0-1.98.392-2.719 1.105-.446.36-2.688 2.339-3.524 6.42C-.908 13.24 1.78 18.735 9.54 26.5c8.67 8.666 16.07 9.34 18.132 9.34.429 0 .688-.027.757-.035 4.043-.474 5.49-2.27 6.547-3.58 1.37-1.7 1.365-3.935-.012-5.317zm-1.727 3.915c-.993 1.232-1.932 2.396-5.068 2.763-.002 0-.173.02-.497.02-1.845 0-8.49-.627-16.552-8.686C3.964 17.76 1.452 12.85 2.45 7.973c.73-3.56 2.664-5.073 2.74-5.13l.066-.05.059-.059c.323-.322.745-.5 1.19-.5.404 0 .778.151 1.054.428l5.203 5.204c.599.598.567 1.604-.07 2.243l-2.293 2.29-.037.04c-.598.658-.527 1.547-.198 2.126.95 1.714 2.25 4.061 4.753 6.565 2.495 2.495 4.839 3.795 6.548 4.743.171.096.524.257.967.257.522 0 1.001-.22 1.356-.624l2.152-2.15a1.67 1.67 0 0 1 1.186-.5c.405 0 .781.153 1.056.426l5.2 5.202c.66.663.388 1.677-.145 2.338zM21.81 5.473c1.919.221 4.179 1.384 5.757 2.962 1.593 1.592 2.758 3.875 2.968 5.815a1.117 1.117 0 0 0 2.221-.24c-.266-2.453-1.65-5.194-3.61-7.155-1.941-1.942-4.655-3.322-7.08-3.601a1.117 1.117 0 1 0-.256 2.22zM20.766 10.152c1.038.12 2.475.89 3.416 1.83.949.95 1.72 2.4 1.834 3.45a1.117 1.117 0 1 0 2.22-.241c-.193-1.792-1.383-3.696-2.475-4.788-1.082-1.082-2.968-2.266-4.74-2.47a1.116 1.116 0 1 0-.255 2.22z"/>
    </g>
</svg>
